<svg width="34" height="34" viewBox="0 0 34 34" fill="none" xmlns="http://www.w3.org/2000/svg">
<path d="M29.7506 18.1192C29.5277 20.5306 28.6227 22.8287 27.1414 24.7446C25.6602 26.6605 23.6639 28.1149 21.3862 28.9376C19.1085 29.7603 16.6436 29.9173 14.2799 29.3903C11.9162 28.8633 9.7515 27.6739 8.03908 25.9615C6.32666 24.2491 5.13734 22.0844 4.6103 19.7207C4.08325 17.357 4.24027 14.8921 5.06299 12.6144C5.88571 10.3367 7.3401 8.34044 9.25598 6.85915C11.1719 5.37786 13.47 4.47285 15.8814 4.25C14.4696 6.16005 13.7902 8.51339 13.9668 10.882C14.1435 13.2506 15.1644 15.4772 16.8439 17.1567C18.5234 18.8362 20.75 19.8571 23.1186 20.0337C25.4872 20.2104 27.8405 19.531 29.7506 18.1192Z" stroke="#CDAFFF" stroke-width="3" stroke-linecap="round" stroke-linejoin="round"/>
</svg>
