<svg width="34" height="34" viewBox="0 0 34 34" fill="none" xmlns="http://www.w3.org/2000/svg">
<path d="M30.0468 22.5108C29.1455 24.6422 27.7359 26.5203 25.9411 27.981C24.1463 29.4417 22.021 30.4405 19.7511 30.8901C17.4811 31.3397 15.1355 31.2263 12.9195 30.56C10.7034 29.8937 8.68432 28.6947 7.03871 27.0677C5.39311 25.4408 4.17109 23.4355 3.4795 21.2272C2.78791 19.0189 2.64781 16.6748 3.07145 14.3999C3.49508 12.1249 4.46955 9.98837 5.90967 8.17702C7.34978 6.36567 9.21169 4.93468 11.3326 4.00915M31.1659 17C31.1659 15.1396 30.7995 13.2974 30.0876 11.5786C29.3756 9.85985 28.3321 8.29813 27.0166 6.98263C25.7011 5.66714 24.1394 4.62363 22.4206 3.91169C20.7018 3.19974 18.8597 2.83331 16.9993 2.83331V17H31.1659Z" stroke="#1E1E1E" stroke-width="3" stroke-linecap="round" stroke-linejoin="round"/>
</svg>
