<svg width="34" height="34" viewBox="0 0 34 34" fill="none" xmlns="http://www.w3.org/2000/svg">
<g clip-path="url(#clip0_2355_511)">
<path d="M16.9993 21.25C19.3466 21.25 21.2493 19.3472 21.2493 17C21.2493 14.6527 19.3466 12.75 16.9993 12.75C14.6521 12.75 12.7493 14.6527 12.7493 17C12.7493 19.3472 14.6521 21.25 16.9993 21.25Z" stroke="#1E1E1E" stroke-width="3" stroke-linecap="round" stroke-linejoin="round"/>
<path d="M27.4827 21.25C27.2941 21.6772 27.2378 22.1512 27.3212 22.6108C27.4045 23.0704 27.6236 23.4944 27.9502 23.8283L28.0352 23.9133C28.2986 24.1764 28.5076 24.4889 28.6502 24.8329C28.7928 25.1768 28.8662 25.5455 28.8662 25.9179C28.8662 26.2902 28.7928 26.6589 28.6502 27.0029C28.5076 27.3468 28.2986 27.6593 28.0352 27.9225C27.772 28.1859 27.4596 28.3949 27.1156 28.5375C26.7716 28.68 26.4029 28.7534 26.0306 28.7534C25.6583 28.7534 25.2896 28.68 24.9456 28.5375C24.6016 28.3949 24.2892 28.1859 24.026 27.9225L23.941 27.8375C23.6071 27.5109 23.1831 27.2918 22.7235 27.2085C22.264 27.1251 21.79 27.1814 21.3627 27.37C20.9437 27.5495 20.5863 27.8477 20.3346 28.2278C20.0829 28.6079 19.9478 29.0533 19.946 29.5091V29.75C19.946 30.5014 19.6475 31.2221 19.1162 31.7534C18.5848 32.2848 17.8641 32.5833 17.1127 32.5833C16.3612 32.5833 15.6406 32.2848 15.1092 31.7534C14.5779 31.2221 14.2793 30.5014 14.2793 29.75V29.6225C14.2684 29.1535 14.1166 28.6988 13.8437 28.3173C13.5709 27.9358 13.1896 27.6452 12.7493 27.4833C12.3221 27.2947 11.8481 27.2385 11.3885 27.3218C10.929 27.4051 10.5049 27.6242 10.171 27.9508L10.086 28.0358C9.82287 28.2992 9.51039 28.5082 9.16643 28.6508C8.82247 28.7934 8.45378 28.8668 8.08143 28.8668C7.70909 28.8668 7.3404 28.7934 6.99643 28.6508C6.65247 28.5082 6.33999 28.2992 6.07685 28.0358C5.81342 27.7727 5.60443 27.4602 5.46185 27.1162C5.31926 26.7722 5.24587 26.4036 5.24587 26.0312C5.24587 25.6589 5.31926 25.2902 5.46185 24.9462C5.60443 24.6022 5.81342 24.2898 6.07685 24.0266L6.16185 23.9416C6.48844 23.6077 6.70753 23.1837 6.79086 22.7241C6.87418 22.2646 6.81793 21.7906 6.62935 21.3633C6.44977 20.9443 6.15159 20.5869 5.77151 20.3352C5.39143 20.0835 4.94605 19.9484 4.49018 19.9466H4.24935C3.4979 19.9466 2.77723 19.6481 2.24588 19.1168C1.71453 18.5854 1.41602 17.8647 1.41602 17.1133C1.41602 16.3618 1.71453 15.6412 2.24588 15.1098C2.77723 14.5785 3.4979 14.28 4.24935 14.28H4.37685C4.84576 14.269 5.30052 14.1172 5.68202 13.8443C6.06352 13.5715 6.35411 13.1902 6.51602 12.75C6.7046 12.3227 6.76085 11.8487 6.67752 11.3891C6.5942 10.9296 6.37511 10.5055 6.04852 10.1716L5.96352 10.0866C5.70008 9.82349 5.4911 9.511 5.34851 9.16704C5.20593 8.82308 5.13254 8.45439 5.13254 8.08204C5.13254 7.7097 5.20593 7.34101 5.34851 6.99704C5.4911 6.65308 5.70008 6.3406 5.96352 6.07746C6.22666 5.81403 6.53914 5.60504 6.8831 5.46246C7.22706 5.31987 7.59575 5.24648 7.9681 5.24648C8.34044 5.24648 8.70914 5.31987 9.0531 5.46246C9.39706 5.60504 9.70954 5.81403 9.97268 6.07746L10.0577 6.16246C10.3916 6.48905 10.8156 6.70814 11.2752 6.79147C11.7347 6.87479 12.2087 6.81854 12.636 6.62996H12.7493C13.1684 6.45038 13.5257 6.1522 13.7774 5.77212C14.0291 5.39204 14.1642 4.94666 14.166 4.49079V4.24996C14.166 3.49851 14.4645 2.77784 14.9959 2.24649C15.5272 1.71514 16.2479 1.41663 16.9993 1.41663C17.7508 1.41663 18.4715 1.71514 19.0028 2.24649C19.5342 2.77784 19.8327 3.49851 19.8327 4.24996V4.37746C19.8345 4.83332 19.9696 5.27871 20.2213 5.65879C20.473 6.03886 20.8303 6.33704 21.2493 6.51663C21.6766 6.70521 22.1506 6.76146 22.6102 6.67813C23.0697 6.59481 23.4938 6.37572 23.8277 6.04913L23.9127 5.96413C24.1758 5.70069 24.4883 5.49171 24.8323 5.34912C25.1762 5.20654 25.5449 5.13315 25.9173 5.13315C26.2896 5.13315 26.6583 5.20654 27.0023 5.34912C27.3462 5.49171 27.6587 5.70069 27.9218 5.96413C28.1853 6.22727 28.3943 6.53975 28.5369 6.88371C28.6794 7.22767 28.7528 7.59637 28.7528 7.96871C28.7528 8.34105 28.6794 8.70975 28.5369 9.05371C28.3943 9.39767 28.1853 9.71015 27.9218 9.97329L27.8368 10.0583C27.5103 10.3922 27.2912 10.8162 27.2078 11.2758C27.1245 11.7354 27.1808 12.2093 27.3693 12.6366V12.75C27.5489 13.169 27.8471 13.5263 28.2272 13.778C28.6073 14.0297 29.0527 14.1648 29.5085 14.1666H29.7493C30.5008 14.1666 31.2215 14.4651 31.7528 14.9965C32.2842 15.5278 32.5827 16.2485 32.5827 17C32.5827 17.7514 32.2842 18.4721 31.7528 19.0034C31.2215 19.5348 30.5008 19.8333 29.7493 19.8333H29.6218C29.166 19.8351 28.7206 19.9702 28.3405 20.2219C27.9604 20.4736 27.6623 20.831 27.4827 21.25Z" stroke="#1E1E1E" stroke-width="3" stroke-linecap="round" stroke-linejoin="round"/>
</g>
<defs>
<clipPath id="clip0_2355_511">
<rect width="34" height="34" fill="white"/>
</clipPath>
</defs>
</svg>
